<?xml version="1.0" encoding="UTF-8" standalone="no"?>
<!DOCTYPE svg PUBLIC "-//W3C//DTD SVG 1.1//EN" "http://www.w3.org/Graphics/SVG/1.1/DTD/svg11.dtd">
<svg xmlns="http://www.w3.org/2000/svg" version="1.1" viewBox="0.00 0.00 500.00 500.00">
<path fill="#ffffff" d="
  M 115.37 381.56
  A 0.91 0.91 0.0 0 0 116.81 381.04
  Q 124.80 346.26 146.07 317.31
  Q 152.41 308.68 165.79 293.28
  Q 192.60 262.43 206.40 248.17
  Q 208.13 246.38 210.59 247.89
  A 2.08 1.87 -3.1 0 1 211.00 248.22
  Q 249.85 287.71 278.63 315.76
  Q 296.34 333.03 302.94 341.68
  Q 316.35 359.27 324.15 374.86
  Q 336.98 400.50 331.23 428.50
  C 328.17 443.42 321.30 458.15 309.99 469.52
  Q 283.00 496.64 244.29 494.62
  Q 215.66 493.13 194.49 474.81
  C 167.28 451.27 159.27 412.68 172.72 379.71
  C 178.22 366.24 186.77 354.81 197.81 342.35
  Q 209.57 329.09 221.53 315.30
  Q 224.29 312.11 227.51 315.32
  Q 236.89 324.68 238.92 326.84
  C 241.77 329.89 240.23 332.24 237.75 335.09
  Q 230.46 343.47 214.81 361.56
  Q 204.95 372.95 202.10 377.35
  C 195.30 387.86 190.63 399.22 190.54 411.52
  C 190.37 432.92 202.63 452.46 221.00 463.25
  C 233.31 470.49 247.01 471.84 261.34 469.12
  C 281.56 465.29 297.30 450.58 304.86 431.59
  C 311.84 414.09 308.71 394.52 298.13 379.11
  Q 291.25 369.09 287.54 363.96
  Q 274.78 346.28 259.19 331.06
  Q 237.07 309.48 212.10 284.90
  C 209.41 282.25 207.62 284.67 205.37 287.13
  Q 196.53 296.78 181.66 313.65
  Q 165.91 331.52 153.71 352.50
  Q 142.61 371.59 139.20 387.27
  Q 134.93 406.85 137.58 426.72
  Q 138.34 432.39 140.50 442.42
  A 1.37 1.36 -72.0 0 1 138.15 443.62
  C 127.65 431.89 108.59 414.41 97.65 400.40
  Q 71.18 366.49 61.96 325.08
  C 59.85 315.64 57.98 303.24 57.43 294.02
  Q 57.21 290.47 57.40 272.76
  Q 57.50 262.82 59.82 250.00
  Q 69.93 194.06 108.33 152.54
  Q 109.53 151.23 131.44 128.70
  Q 162.03 97.23 234.19 20.64
  C 237.77 16.84 243.43 11.55 247.21 6.77
  A 1.74 1.70 7.8 0 1 247.91 6.25
  Q 250.78 5.08 252.43 6.83
  Q 326.16 85.25 384.13 145.09
  Q 398.95 160.38 404.71 168.30
  Q 423.65 194.36 433.32 223.93
  Q 447.16 266.24 440.19 312.45
  Q 433.99 353.60 410.35 389.08
  Q 401.29 402.68 392.18 412.17
  Q 380.98 423.84 361.78 443.49
  A 1.37 1.35 -44.2 0 1 359.80 443.47
  Q 359.02 442.61 359.29 441.26
  Q 360.78 434.03 361.69 428.24
  Q 366.14 400.04 356.54 374.88
  C 347.19 350.40 332.80 327.97 313.68 310.31
  Q 293.75 291.89 285.26 284.00
  C 283.55 282.41 282.06 282.92 280.76 284.62
  Q 280.34 285.16 275.20 291.20
  C 272.77 294.05 269.95 292.30 267.74 290.13
  Q 266.66 289.07 259.87 282.68
  C 255.70 278.75 253.40 276.91 257.71 272.14
  Q 267.53 261.28 279.20 247.50
  A 1.50 1.47 -78.6 0 1 279.83 247.07
  Q 281.97 246.34 283.92 248.06
  Q 312.56 273.33 334.49 295.01
  Q 362.42 322.62 376.07 358.66
  C 378.05 363.89 380.13 371.87 381.58 375.91
  C 382.31 377.92 382.98 379.00 384.06 380.73
  A 0.46 0.45 51.9 0 0 384.76 380.82
  Q 386.51 379.09 387.70 377.21
  Q 391.82 370.68 397.05 361.32
  C 418.09 323.66 422.82 279.22 410.80 237.63
  C 404.25 214.97 392.98 192.89 377.07 175.46
  Q 363.97 161.11 330.17 126.18
  C 300.31 95.31 282.22 76.24 250.70 43.30
  A 0.93 0.93 0.0 0 0 249.36 43.29
  Q 231.62 61.64 171.25 124.58
  C 158.25 138.13 142.21 154.10 129.90 166.90
  C 109.77 187.82 94.92 213.54 87.52 241.48
  Q 74.31 291.38 93.17 340.65
  Q 101.68 362.88 114.73 380.79
  Q 115.18 381.42 115.37 381.56
  Z"
/>
</svg>
